<svg width="714" height="259" viewBox="0 0 714 259" fill="none" xmlns="http://www.w3.org/2000/svg">
<path d="M73.1263 198.611C67.5504 198.611 62.8548 196.994 59.0397 193.762C55.2246 190.235 53.317 185.68 53.317 180.097V65.0486C53.317 56.2326 48.915 51.8247 40.1108 51.8247H18.5407C13.2582 51.8247 8.85618 50.2084 5.33453 46.9759C2.10635 43.4495 0.492264 39.0415 0.492264 33.7519C0.492264 28.4623 2.10635 24.2013 5.33453 20.9688C8.85618 17.4424 13.2582 15.6792 18.5407 15.6792H127.272C132.848 15.6792 137.25 17.4424 140.478 20.9688C144 24.2013 145.76 28.4623 145.76 33.7519C145.76 39.0415 144 43.4495 140.478 46.9759C137.25 50.2084 132.848 51.8247 127.272 51.8247H106.142C97.3376 51.8247 92.9356 56.2326 92.9356 65.0486V180.097C92.9356 185.68 91.028 190.235 87.2129 193.762C83.6912 196.994 78.9957 198.611 73.1263 198.611Z" fill="white"/>
<path d="M213.648 198.611C193.986 198.611 177.992 192.439 165.666 180.097C153.634 167.461 147.617 150.71 147.617 129.846C147.617 108.982 153.487 92.5251 165.226 80.4766C177.258 68.1342 192.959 61.963 212.328 61.963C226.121 61.963 238.153 66.8118 248.425 76.5094C249.599 72.983 251.8 70.0443 255.028 67.6934C258.256 65.3425 262.071 64.167 266.473 64.167C272.343 64.167 277.038 65.9302 280.56 69.4566C284.375 72.6891 286.282 76.6563 286.282 81.3582V181.419C286.282 186.415 284.375 190.529 280.56 193.762C277.038 196.994 272.343 198.611 266.473 198.611C256.789 198.611 250.772 194.35 248.425 185.827C239.034 194.35 227.442 198.611 213.648 198.611ZM216.73 162.906C226.121 162.906 233.604 159.82 239.18 153.649C244.756 147.184 247.544 139.25 247.544 129.846C247.544 120.148 244.756 112.361 239.18 106.484C233.604 100.606 226.121 97.6677 216.73 97.6677C207.632 97.6677 200.149 100.606 194.279 106.484C188.703 112.361 185.915 120.148 185.915 129.846C185.915 139.25 188.703 147.184 194.279 153.649C200.149 159.82 207.632 162.906 216.73 162.906Z" fill="white"/>
<path d="M365.131 198.611C345.175 198.611 328.741 194.496 315.828 186.268C313.187 184.505 311.279 182.448 310.105 180.097C308.931 177.452 308.344 174.954 308.344 172.603C308.344 167.608 309.958 163.053 313.187 158.939C316.708 154.825 320.964 152.768 325.953 152.768C328.3 152.768 330.648 153.355 332.996 154.531C338.278 156.882 344.295 158.939 351.044 160.702C357.794 162.171 363.957 162.906 369.533 162.906C380.391 162.906 385.821 160.408 385.821 155.412C385.821 152.474 384.5 149.976 381.859 147.919C379.218 145.568 373.055 143.952 363.37 143.07C359.555 142.776 354.566 142.188 348.403 141.307C342.534 140.425 336.664 138.809 330.795 136.458C324.925 133.813 319.936 129.993 315.828 124.997C312.013 120.002 310.105 113.243 310.105 104.72C310.105 91.4965 315.094 81.0643 325.072 73.4238C335.05 65.7833 348.403 61.963 365.131 61.963C374.815 61.963 383.913 62.9916 392.424 65.0486C401.228 67.1057 407.831 70.1913 412.233 74.3054C416.342 78.1256 418.396 82.5336 418.396 87.5293C418.396 91.9373 416.782 95.9045 413.554 99.4309C410.325 102.957 406.217 104.72 401.228 104.72C398.587 104.72 396.092 104.133 393.744 102.957C390.223 100.606 385.674 98.8432 380.098 97.6677C374.815 96.4923 369.386 95.9045 363.81 95.9045C352.658 95.9045 347.083 98.2554 347.083 102.957C347.083 105.014 348.11 106.924 350.164 108.688C352.512 110.157 357.647 111.479 365.571 112.655C370.56 113.243 376.283 114.124 382.739 115.3C389.196 116.181 395.358 117.944 401.228 120.589C407.391 122.94 412.527 126.907 416.635 132.491C420.744 138.074 422.798 145.715 422.798 155.412C422.798 168.636 417.515 179.215 406.951 187.15C396.386 194.79 382.446 198.611 365.131 198.611Z" fill="white"/>
<path d="M466.836 198.611C461.26 198.611 456.564 196.994 452.749 193.762C448.934 190.529 447.026 186.415 447.026 181.419V17.4424C447.026 12.7405 448.787 8.77333 452.309 5.5408C456.124 2.01441 460.966 0.251221 466.836 0.251221C472.412 0.251221 476.961 2.01441 480.482 5.5408C484.004 8.77333 485.765 12.8875 485.765 17.8832V93.7005C485.765 97.2269 486.792 98.9901 488.846 98.9901C489.433 98.9901 490.607 98.4024 492.368 97.2269L535.068 65.4894C538.589 63.1385 542.404 61.963 546.513 61.963C551.502 61.963 555.611 63.7262 558.839 67.2526C562.067 70.779 563.681 74.8931 563.681 79.595C563.681 86.06 560.746 91.2027 554.877 95.0229L520.101 117.944C517.166 120.002 515.699 122.205 515.699 124.556C515.699 126.907 516.873 128.817 519.22 130.287L559.279 166.432C561.92 168.489 563.681 170.84 564.562 173.485C565.442 176.13 565.882 178.628 565.882 180.979C565.882 185.68 563.975 189.795 560.16 193.321C556.638 196.847 552.383 198.611 547.394 198.611C542.405 198.611 538.003 196.7 534.187 192.88L491.047 150.564C490.167 149.682 489.14 149.241 487.966 149.241C486.498 149.241 485.765 150.417 485.765 152.768V180.979C485.765 185.974 483.857 190.235 480.042 193.762C476.52 196.994 472.118 198.611 466.836 198.611Z" fill="white"/>
<path d="M574.824 79.5948C574.824 73.7175 576.878 69.3095 580.987 66.3709C585.095 63.4322 589.791 61.9629 595.073 61.9629C599.182 61.9629 602.704 63.1384 605.638 65.4893C608.866 67.5463 611.068 70.485 612.241 74.3053L639.534 140.866C641.002 144.686 643.056 146.596 645.697 146.596C648.338 146.596 650.246 144.686 651.42 140.866L675.191 74.3053C676.658 70.1911 679.006 67.1055 682.234 65.0485C685.756 62.9914 689.424 61.9629 693.239 61.9629C698.228 61.9629 702.777 63.5792 706.886 66.8117C711.288 70.0442 713.489 74.3052 713.489 79.5948C713.489 82.5335 712.902 85.3252 711.728 87.97L643.056 246.658C641.002 251.065 638.36 254.151 635.132 255.914C632.197 257.971 629.116 259 625.888 259C620.605 259 615.763 257.09 611.361 253.269C607.252 249.743 605.198 245.482 605.198 240.486C605.198 237.842 605.785 235.491 606.959 233.434L630.73 191.117C625.741 189.648 621.779 185.974 618.845 180.097L576.144 87.5292C575.264 84.8844 574.824 82.2396 574.824 79.5948Z" fill="#F5F876"/>
</svg>
